<?xml version="1.0" encoding="utf-8"?>
<!-- Generator: Adobe Illustrator 27.5.0, SVG Export Plug-In . SVG Version: 6.00 Build 0)  -->
<svg version="1.1" xmlns="http://www.w3.org/2000/svg" xmlns:xlink="http://www.w3.org/1999/xlink" x="0px" y="0px"
	 viewBox="0 0 500 500" style="enable-background:new 0 0 500 500;" xml:space="preserve">
<g id="BACKGROUND">
	<rect id="XMLID_71_" style="fill:#EFEFEF;" width="500" height="500"/>
</g>
<g id="OBJECTS">
	
		<text id="XMLID_9_" transform="matrix(0.9272 0 0 1 153.6348 422.5243)" style="fill:#F15A24; font-family:'Montserrat-Bold'; font-size:15.0605px; letter-spacing:2.157;">PERSONAL TRAINER</text>
	
		<text id="XMLID_8_" transform="matrix(0.9272 0 0 1 163.8296 398.3543)" style="fill:#202020; font-family:'Molot'; font-size:66.3084px;">MArco</text>
	<g>
		<path id="XMLID_72_" style="fill:#F15A24;" d="M366.068,193.21c0,38.275-18.898,72.125-47.87,92.729
			c-3.159,2.252-6.437,4.345-9.835,6.25c-16.525,9.382-35.636,14.74-56.013,14.74c-1.133,0-2.252-0.013-3.372-0.053
			c-1.053-0.027-2.106-0.067-3.159-0.133c-0.133,0-0.266-0.013-0.4-0.027c-1-0.053-1.986-0.133-2.985-0.213
			c-0.08,0-0.146-0.013-0.213-0.027c-0.12-0.013-0.227-0.013-0.346-0.027c-0.906-0.08-1.813-0.173-2.719-0.28h-0.013
			c-0.107-0.013-0.213-0.027-0.32-0.04c-0.866-0.107-1.746-0.213-2.612-0.333l-0.24-0.04c-0.347-0.04-0.693-0.093-1.026-0.16
			c-0.813-0.12-1.626-0.253-2.439-0.4c-0.92-0.16-1.839-0.333-2.759-0.52c-0.267-0.04-0.52-0.093-0.786-0.16
			c-0.946-0.2-1.892-0.4-2.825-0.626c-0.96-0.227-1.932-0.467-2.879-0.72c-0.133-0.027-0.266-0.066-0.4-0.106
			c-0.999-0.267-1.986-0.547-2.959-0.84c-0.733-0.213-1.453-0.44-2.172-0.666c-0.067-0.013-0.12-0.04-0.187-0.067
			c-0.546-0.16-1.093-0.346-1.626-0.533c-0.04-0.013-0.08-0.027-0.12-0.04c-0.653-0.213-1.293-0.44-1.919-0.666
			c-0.04-0.013-0.067-0.013-0.093-0.04c-0.08-0.027-0.147-0.053-0.227-0.08c-0.746-0.267-1.493-0.533-2.226-0.826
			c-0.333-0.133-0.653-0.253-0.986-0.387c-2.799-1.106-5.557-2.332-8.249-3.665c-31.891-15.726-55.347-45.978-61.73-82.094
			c0,0-0.013-0.013,0-0.027c-1.146-6.477,11.595-13.127,11.595-19.924c0-9.636-12.142-18.991-9.876-27.92
			c3.918-15.566,11.061-29.866,20.67-42.127c16.325-20.843,39.767-35.849,66.661-41.367c7.41-1.506,15.086-2.305,22.936-2.305
			c14.047,0,27.493,2.545,39.914,7.21c26.201,9.809,47.804,29.026,60.731,53.521c5.091,9.662,8.836,20.137,10.981,31.185
			C365.348,178.457,366.068,185.747,366.068,193.21z"/>
		<g>
			<path style="fill:none;" d="M192.032,232.761c-4.282-3.346-8.044-7.47-11.193-11.599c-2.505-3.285-5.35-7.242-7.769-11.511
				c-0.973,2.896-2.057,5.263-2.914,6.922c6.416,6.889,9.353,15.896,8.215,26.645c-0.876,8.276-1.704,16.611-4.011,24.604
				c-0.795,2.755-1.047,5.656-1.247,8.535c0.654,1.768,1.343,3.531,2.073,5.238c-0.36,0.88-0.64,1.733-0.893,2.639
				c-0.346,1.293-0.6,2.599-0.706,3.932c-0.107,1.333-0.053,2.665,0.173,3.971c0.253,1.293,0.746,2.519,1.399,3.612
				c-0.453-1.199-0.706-2.439-0.733-3.692c0-1.253,0.173-2.479,0.466-3.678c0.32-1.186,0.76-2.346,1.279-3.465
				c0.373-0.8,0.813-1.613,1.279-2.346c0.453-0.2,0.92-0.386,1.399-0.56c0.453-0.24,0.946-0.507,1.506-0.76
				c1.35-0.608,3.12-1.143,5.735-1.122c0.001-0.006,0.002-0.012,0.003-0.018c-0.102-0.003-0.207-0.012-0.308-0.013
				c0.101,0.001,0.206,0.01,0.308,0.012c0.721-4.687,2.004-9.243,3.934-13.479c0.784-1.72,1.76-3.478,2.867-5.232
				c-0.79-5.694-1.79-14.122-1.744-17.091C191.205,240.444,192.16,236.635,192.032,232.761z"/>
			<path style="fill:#202020;" d="M352.994,140.222c-2.159-0.76-4.478-1.159-6.903-1.159c-6.002,0-11.419,2.526-15.27,6.555
				c0.003-0.005,0.005-0.01,0.008-0.015c-0.017,0.018-0.033,0.038-0.05,0.057c-0.982,1.018-1.2,1.251-1.263,1.423
				c1.39-0.564,2.916-0.853,4.439-0.923c2.1-0.072,4.217,0.248,6.224,0.89c4.031,1.258,7.682,3.66,10.535,6.823
				c1.397,1.606,2.602,3.401,3.482,5.361c0.847,1.968,1.431,4.075,1.53,6.218c0.291,4.305-1.266,8.48-3.713,11.694
				c1.484-3.778,2.265-7.713,1.645-11.478c-0.6-3.745-2.397-7.208-4.937-10.026c-2.508-2.853-5.721-5.118-9.251-6.644
				c-3.276-1.375-6.922-2.099-10.58-1.355c-8.197,2.9-14.078,10.701-14.078,19.902c0,7.41,3.825,13.927,9.595,17.698
				c-5.517,4.558-14.953,11.635-21.936,13.287c0,0-1.997,0.32-4.078,0.998c0.79-6.324-0.123-12.958-2.478-18.365
				c-2.219-5.094-6.018-8.696-10.571-11.014c0.103-4.831-0.691-9.542-2.13-12.837c-3.623-8.298-11.239-11.901-19.414-13.465
				c-0.698-4.135-2.039-7.946-3.752-10.619c-2.946-4.595-7.501-8.287-12.616-10.435c0.298-0.995,1.24-2.014,4.172-0.107l7.023,4.704
				c0,0,8.316,5.158,11.088-1.466l6.557-11.408c0,0,5.704,2.932,6.943,0.773c0,0-0.125-4.134,0.307-8.942
				c0.363-4.043,5.251-10.328,7.01-14.646c0,0,0.88-1.946,1.733-4.998c0.96-3.451,1.892-8.343,1.453-13.447
				c-0.253-2.852-0.933-5.771-2.279-8.556c0,0-0.661-2.328-2.985-5.448c-2.048-3.591-5.258-6.78-8.781-9.074
				c-10.429-6.79-24.344-7.014-35.702-2.354c-12.896,5.291-22.555,30.745-21.53,47.073c-2.354,1.357-4.429,2.716-5.981,3.771
				c-2.695,1.833-5.445,3.967-8.034,6.351c-7.155-0.33-14.395,0.414-21.235,2.466c-8.179,2.454-16.234,7.424-21.982,14.057
				c-5.163,1.38-10.183,4.349-14.062,7.296c-8.005,6.083-13.927,14.582-16.654,24.284c-3.593,12.785-1.917,35.453,8.972,46.507
				c-9.257,9.491-11.492,24.52-8.444,38.176c2.297,10.295,7.759,19.812,13.462,28.564c2.846,4.368,6.272,8.585,8.516,13.303
				c0.458,0.963,0.818,1.968,1.152,2.982c0.257,2.737,0.338,5.563,0.165,8.429c0,0-0.346,3.198-0.466,7.023
				c-0.013,0.053-0.013,0.093-0.013,0.146c0,0,0,0.013,0,0.027v0.067h-0.013c-0.227,1.266-0.32,2.665-0.32,4.025
				c0,1.453,0.133,2.905,0.4,4.345c0.253,1.453,0.72,2.852,1.319,4.198c0.6,1.359,1.466,2.586,2.426,3.745
				c-1.119-1-2.186-2.106-3.012-3.412c-0.826-1.306-1.533-2.705-2.026-4.171c-0.506-1.479-0.866-2.999-1.106-4.544
				c-0.213-1.573-0.346-3.092-0.28-4.771c0,0-0.64-0.107-1.159-0.147c-13.887-0.866-17.991,14.127-16.059,22.309
				c2.252,9.462,10.275,19.404,19.471,19.417c8.783,0.013,14.367-4.691,16.419-6.863c0,0,0,0,0.013-0.013
				c2.999-2.639,4.251-7.183,3.159-12.634c3.852,3.345,8.396,5.397,13.114,5.397c7.81,0,14.047-3.865,16.725-5.478
				c0.08-0.04,0.16-0.093,0.24-0.133c0.24-0.146,0.453-0.266,0.613-0.36c1.186-0.626,1.759-1.173,1.906-1.719
				c3.012-3.438,3.891-9.009,1.879-15.486c-0.32-1.066-0.746-2.106-1.199-3.132c0.333,0.133,0.653,0.253,0.986,0.387
				c0.733,0.293,1.479,0.56,2.226,0.826c0.08,0.027,0.147,0.053,0.227,0.08c0.027,0.027,0.053,0.027,0.093,0.04
				c0.626,0.227,1.266,0.453,1.919,0.666c0.04,0.013,0.08,0.027,0.12,0.04c0.533,0.187,1.079,0.373,1.626,0.533
				c0.067,0.027,0.12,0.053,0.187,0.067c0.72,0.227,1.439,0.453,2.172,0.666c0.973,0.293,1.959,0.573,2.959,0.84
				c0.133,0.04,0.267,0.08,0.4,0.106c0.946,0.253,1.919,0.493,2.879,0.72c0.933,0.227,1.879,0.426,2.825,0.626
				c0.267,0.067,0.52,0.12,0.786,0.16c0.92,0.187,1.839,0.36,2.759,0.52c0.813,0.147,1.626,0.28,2.439,0.4
				c0.333,0.067,0.68,0.12,1.026,0.16l0.24,0.04c0.866,0.12,1.746,0.227,2.612,0.333c0.107,0.013,0.213,0.027,0.32,0.04h0.013
				c0.906,0.107,1.813,0.2,2.719,0.28c0.12,0.013,0.227,0.013,0.346,0.027c0.067,0.013,0.133,0.027,0.213,0.027
				c0.999,0.08,1.986,0.16,2.985,0.213c0.133,0.013,0.266,0.027,0.4,0.027c1.053,0.067,2.106,0.107,3.159,0.133
				c1.119,0.04,2.239,0.053,3.372,0.053c20.377,0,39.488-5.357,56.013-14.74c-7.983-10.208-18.911-17.365-31.958-38.195
				c-1.346-5.771-18.777-28.475-19.79-35.724c0.888-5.331-1.4-11.2-2.693-12.039c0,0,3.931-6.45,3.438-11.434
				c0.48,2.705,1.626,9.142,2.106,10.355c0,0,2.932,21.43,21.896,29.746c0,0,6.351,3.045,12.592,0.779
				c8.096,2.575,17.993-1.821,23.64-8.185c4.098-4.618,6.744-9.953,9.279-15.522c1.315-2.889,2.976-5.909,4.211-9.013
				c2.685-4.253,5.403-9.067,8.104-14.557c5.557-0.853,10.408-3.891,13.633-8.196c4.664-1.573,8.596-4.718,11.155-8.796
				c2.052-3.252,3.238-7.103,3.238-11.221C367.214,150.937,361.283,143.087,352.994,140.222z M190.03,266.629
				c-1.93,4.236-3.213,8.792-3.934,13.479c-0.102-0.002-0.207-0.011-0.308-0.012c0.101,0.001,0.206,0.01,0.308,0.013
				c-0.001,0.006-0.003,0.012-0.003,0.018c-2.615-0.021-4.385,0.514-5.735,1.122c-0.56,0.253-1.053,0.52-1.506,0.76
				c-0.48,0.173-0.946,0.36-1.399,0.56c-0.466,0.733-0.906,1.546-1.279,2.346c-0.52,1.119-0.96,2.279-1.279,3.465
				c-0.293,1.199-0.466,2.426-0.466,3.678c0.027,1.253,0.28,2.492,0.733,3.692c-0.653-1.093-1.146-2.319-1.399-3.612
				c-0.227-1.306-0.28-2.639-0.173-3.971c0.107-1.333,0.36-2.639,0.706-3.932c0.253-0.906,0.533-1.759,0.893-2.639
				c-0.73-1.707-1.419-3.47-2.073-5.238c0.2-2.879,0.452-5.78,1.247-8.535c2.307-7.992,3.135-16.328,4.011-24.604
				c1.137-10.749-1.8-19.757-8.215-26.645c0.858-1.659,1.941-4.026,2.914-6.922c2.419,4.269,5.264,8.226,7.769,11.511
				c3.149,4.129,6.911,8.253,11.193,11.599c0.129,3.874-0.827,7.683-0.88,11.544c-0.046,2.969,0.955,11.398,1.744,17.091
				C191.79,263.15,190.813,264.909,190.03,266.629z"/>
		</g>
	</g>
</g>
<g id="DESIGNER_BY_FREEPIK">
	<g>
		<g id="XMLID_319_">
			<g id="XMLID_338_">
				<path id="XMLID_346_" style="fill:#161616;" d="M260.104,465.465c-0.433,0.443-0.804,0.932-1.108,1.453l-0.465-0.241
					c-0.067-0.297-0.35-0.502-0.659-0.466c-0.331,0.039-0.567,0.339-0.529,0.67c0.039,0.331,0.339,0.567,0.67,0.528
					c0.065-0.007,0.127-0.025,0.184-0.052l0.451,0.234c-0.251,0.554-0.433,1.139-0.539,1.743l0.747,0.132
					c0.229-1.306,0.85-2.507,1.792-3.473L260.104,465.465z"/>
				<path id="XMLID_345_" style="fill:#161616;" d="M265.592,463.163c-0.171,0-0.341,0.006-0.509,0.017l-0.074-0.626
					c0.188-0.149,0.296-0.389,0.266-0.645c-0.046-0.393-0.402-0.674-0.795-0.628c-0.393,0.046-0.675,0.402-0.628,0.796
					c0.03,0.254,0.19,0.461,0.404,0.563l0.073,0.624c-0.714,0.116-1.402,0.332-2.06,0.645l0.327,0.685
					c0.935-0.447,1.941-0.674,2.995-0.674c0.497,0,0.993,0.053,1.476,0.158l0.16-0.741
					C266.692,463.222,266.143,463.163,265.592,463.163z"/>
				<path id="XMLID_344_" style="fill:#161616;" d="M272.194,465.71c0.331-0.04,0.566-0.341,0.525-0.672
					c-0.04-0.331-0.341-0.566-0.672-0.525c-0.31,0.038-0.535,0.304-0.53,0.608l-0.416,0.363c-0.418-0.43-0.89-0.813-1.407-1.14
					l-0.404,0.642c1.135,0.715,2.021,1.727,2.564,2.925l0.69-0.313c-0.251-0.554-0.567-1.071-0.942-1.545l0.402-0.351
					C272.065,465.715,272.129,465.719,272.194,465.71z"/>
				<path id="XMLID_343_" style="fill:#161616;" d="M265.045,473.371c-0.386,0.023-0.775,0.035-1.157,0.035
					c-0.88,0-1.733-0.061-2.479-0.18c-0.391-0.061-0.846-0.154-1.27-0.292c1.047,1.861,3.069,3.125,5.389,3.125
					c2.855,0,5.263-1.916,5.949-4.503c-0.682,0.449-1.505,0.825-2.458,1.122C267.839,473.047,266.464,473.286,265.045,473.371z"/>
				<path id="XMLID_339_" style="fill:#161616;" d="M265.592,464.68c-3.352,0-6.079,2.666-6.079,5.943
					c0,0.425,0.046,0.849,0.137,1.261c0.674,0.483,2.706,0.891,5.348,0.731c2.88-0.174,5.297-0.958,6.672-2.159
					c-0.005-0.194-0.021-0.39-0.045-0.581C271.244,466.913,268.65,464.68,265.592,464.68z M263.433,471.194
					c-1.02,0-1.85-0.83-1.85-1.85c0-1.021,0.83-1.85,1.85-1.85c1.02,0,1.85,0.83,1.85,1.85
					C265.282,470.364,264.452,471.194,263.433,471.194z M268.17,470.286c-0.75,0-1.36-0.61-1.36-1.36s0.61-1.36,1.36-1.36
					s1.36,0.61,1.36,1.36S268.92,470.286,268.17,470.286z"/>
			</g>
			<path id="XMLID_336_" style="fill:#161616;" d="M281.596,466.547c-0.295-0.116-0.806-0.31-1.383-0.238
				c-0.551,0.069-0.844,0.341-0.844,1.007v0.866h2.228v1.717h-2.228v5.455h-1.932v-5.455h-1.339v-1.717h1.339v-0.889
				c0-1.68,0.896-2.782,2.568-2.782c0.643,0,1.157,0.121,1.59,0.308V466.547z"/>
			<path id="XMLID_334_" style="fill:#161616;" d="M286.298,469.878c-0.177-0.029-0.357-0.046-0.525-0.046
				c-0.895,0-1.51,0.548-1.51,1.613v3.908h-1.933v-7.172h1.873v0.784c0.451-0.673,1.14-0.977,2.021-0.977
				c0.414,0,0.848,0.128,1.095,0.337L286.298,469.878z"/>
			<path id="XMLID_331_" style="fill:#161616;" d="M293.966,471.757c0,0.222-0.016,0.488-0.037,0.651h-5.085
				c0.207,1.036,0.933,1.487,1.843,1.487c0.622,0,1.295-0.252,1.813-0.689l1.133,1.243c-0.815,0.748-1.851,1.089-3.057,1.089
				c-2.198,0-3.724-1.496-3.724-3.753c0-2.258,1.48-3.797,3.627-3.797C292.544,467.989,293.958,469.522,293.966,471.757z
				 M288.852,471.091h3.175c-0.178-0.918-0.732-1.436-1.561-1.436C289.555,469.654,289.021,470.202,288.852,471.091z"/>
			<path id="XMLID_328_" style="fill:#161616;" d="M301.619,471.757c0,0.222-0.016,0.488-0.037,0.651h-5.085
				c0.207,1.036,0.933,1.487,1.843,1.487c0.622,0,1.296-0.252,1.813-0.689l1.133,1.243c-0.815,0.748-1.851,1.089-3.058,1.089
				c-2.198,0-3.723-1.496-3.723-3.753c0-2.258,1.48-3.797,3.627-3.797C300.197,467.989,301.611,469.522,301.619,471.757z
				 M296.505,471.091h3.175c-0.178-0.918-0.733-1.436-1.561-1.436C297.208,469.654,296.675,470.202,296.505,471.091z"/>
			<path id="XMLID_325_" style="fill:#161616;" d="M309.965,471.764c0,2.154-1.495,3.775-3.472,3.775
				c-0.962,0-1.643-0.378-2.109-0.933v3.708h-1.925v-10.133h1.888v0.792c0.467-0.585,1.154-0.984,2.139-0.984
				C308.47,467.989,309.965,469.61,309.965,471.764z M304.287,471.764c0,1.133,0.748,1.977,1.844,1.977
				c1.14,0,1.85-0.881,1.85-1.977c0-1.095-0.71-1.976-1.85-1.976C305.035,469.788,304.287,470.632,304.287,471.764z"/>
			<path id="XMLID_322_" style="fill:#161616;" d="M313.068,465.835c0,0.696-0.541,1.23-1.236,1.23c-0.696,0-1.228-0.533-1.228-1.23
				c0-0.695,0.532-1.243,1.228-1.243C312.527,464.592,313.068,465.14,313.068,465.835z M312.809,475.353h-1.932v-7.172h1.932
				V475.353z"/>
			<path id="XMLID_320_" style="fill:#161616;" d="M316.032,470.735l2.702-2.554h2.368l-3.479,3.375l3.501,3.797h-2.376
				l-2.717-2.901v2.901h-1.932v-10.658h1.932V470.735z"/>
		</g>
		<g>
			<path style="fill:#161616;" d="M184.413,475.289v-1.055c-0.527,0.718-1.391,1.23-2.387,1.23c-1.846,0-3.149-1.406-3.149-3.706
				c0-2.256,1.289-3.721,3.149-3.721c0.952,0,1.816,0.469,2.387,1.245v-3.765h1.099v9.771H184.413z M184.413,473.37v-3.208
				c-0.395-0.615-1.245-1.143-2.124-1.143c-1.42,0-2.27,1.172-2.27,2.739c0,1.567,0.85,2.725,2.27,2.725
				C183.168,474.483,184.018,473.985,184.413,473.37z"/>
			<path style="fill:#161616;" d="M186.932,471.744c0-2.051,1.465-3.706,3.486-3.706c2.139,0,3.398,1.67,3.398,3.794v0.278h-5.727
				c0.088,1.333,1.025,2.446,2.549,2.446c0.806,0,1.626-0.322,2.182-0.894l0.527,0.718c-0.703,0.703-1.655,1.084-2.812,1.084
				C188.441,475.465,186.932,473.956,186.932,471.744z M190.404,468.946c-1.509,0-2.256,1.274-2.314,2.358h4.644
				C192.718,470.25,192.015,468.946,190.404,468.946z"/>
			<path style="fill:#161616;" d="M194.607,474.352l0.571-0.791c0.469,0.542,1.362,1.011,2.329,1.011c1.084,0,1.67-0.513,1.67-1.216
				c0-1.714-4.38-0.659-4.38-3.281c0-1.099,0.952-2.036,2.636-2.036c1.202,0,2.051,0.454,2.623,1.025l-0.513,0.762
				c-0.424-0.513-1.201-0.893-2.109-0.893c-0.966,0-1.567,0.483-1.567,1.113c0,1.553,4.379,0.527,4.379,3.281
				c0,1.186-0.952,2.139-2.783,2.139C196.307,475.465,195.325,475.113,194.607,474.352z"/>
			<path style="fill:#161616;" d="M201.478,466.471c0-0.41,0.337-0.747,0.732-0.747c0.41,0,0.747,0.337,0.747,0.747
				c0,0.41-0.337,0.732-0.747,0.732C201.814,467.203,201.478,466.881,201.478,466.471z M201.667,475.289v-7.075h1.099v7.075H201.667
				z"/>
			<path style="fill:#161616;" d="M204.583,477.105l0.556-0.82c0.586,0.703,1.289,0.967,2.3,0.967c1.172,0,2.271-0.571,2.271-2.124
				v-1.011c-0.513,0.718-1.377,1.26-2.373,1.26c-1.846,0-3.149-1.377-3.149-3.662c0-2.271,1.289-3.677,3.149-3.677
				c0.952,0,1.802,0.469,2.373,1.245v-1.069h1.099v6.87c0,2.344-1.641,3.076-3.369,3.076
				C206.237,478.16,205.417,477.925,204.583,477.105z M209.709,473.253v-3.091c-0.381-0.615-1.23-1.143-2.109-1.143
				c-1.421,0-2.27,1.128-2.27,2.695c0,1.553,0.849,2.695,2.27,2.695C208.479,474.41,209.328,473.868,209.709,473.253z"/>
			<path style="fill:#161616;" d="M217.414,475.289v-4.629c0-1.245-0.63-1.641-1.582-1.641c-0.864,0-1.685,0.527-2.094,1.099v5.171
				h-1.099v-7.075h1.099v1.025c0.497-0.586,1.464-1.201,2.519-1.201c1.48,0,2.256,0.747,2.256,2.285v4.966H217.414z"/>
			<path style="fill:#161616;" d="M219.933,471.744c0-2.051,1.465-3.706,3.486-3.706c2.139,0,3.398,1.67,3.398,3.794v0.278h-5.727
				c0.088,1.333,1.025,2.446,2.548,2.446c0.806,0,1.626-0.322,2.183-0.894l0.527,0.718c-0.703,0.703-1.655,1.084-2.813,1.084
				C221.442,475.465,219.933,473.956,219.933,471.744z M223.404,468.946c-1.509,0-2.256,1.274-2.314,2.358h4.643
				C225.719,470.25,225.016,468.946,223.404,468.946z"/>
			<path style="fill:#161616;" d="M233.351,475.289v-1.055c-0.527,0.718-1.392,1.23-2.388,1.23c-1.845,0-3.149-1.406-3.149-3.706
				c0-2.256,1.289-3.721,3.149-3.721c0.952,0,1.817,0.469,2.388,1.245v-3.765h1.098v9.771H233.351z M233.351,473.37v-3.208
				c-0.396-0.615-1.245-1.143-2.124-1.143c-1.421,0-2.27,1.172-2.27,2.739c0,1.567,0.85,2.725,2.27,2.725
				C232.105,474.483,232.955,473.985,233.351,473.37z"/>
			<path style="fill:#161616;" d="M239.692,475.289v-9.771h1.099v3.765c0.571-0.776,1.421-1.245,2.388-1.245
				c1.845,0,3.149,1.465,3.149,3.721c0,2.3-1.304,3.706-3.149,3.706c-0.996,0-1.86-0.513-2.388-1.23v1.055H239.692z M242.9,474.483
				c1.436,0,2.285-1.157,2.285-2.725c0-1.567-0.85-2.739-2.285-2.739c-0.864,0-1.729,0.527-2.109,1.143v3.208
				C241.172,473.985,242.036,474.483,242.9,474.483z"/>
			<path style="fill:#161616;" d="M247.529,477.061c0.161,0.073,0.425,0.117,0.6,0.117c0.483,0,0.806-0.161,1.055-0.747l0.469-1.069
				l-2.959-7.148h1.186l2.358,5.801l2.344-5.801h1.2l-3.544,8.511c-0.425,1.024-1.143,1.421-2.08,1.436
				c-0.234,0-0.6-0.044-0.806-0.103L247.529,477.061z"/>
		</g>
	</g>
</g>
</svg>
